<svg width="140" height="101" viewBox="0 0 140 101" fill="none" xmlns="http://www.w3.org/2000/svg">
<path d="M40.7031 95V77.912H44.1831L50.5431 87.224H49.0311L55.3671 77.912H58.8471V95H54.0951V85.784L54.7911 85.976L51.3111 90.968H48.2391L44.7831 85.976L45.4551 85.784V95H40.7031ZM67.0077 95.288C65.8557 95.288 64.8317 95.064 63.9357 94.616C63.0557 94.168 62.3597 93.544 61.8477 92.744C61.3357 91.944 61.0797 91.032 61.0797 90.008V83.192H65.7837V90.056C65.7837 90.296 65.8317 90.512 65.9277 90.704C66.0397 90.896 66.1837 91.048 66.3597 91.16C66.5517 91.256 66.7677 91.304 67.0077 91.304C67.3437 91.304 67.6237 91.192 67.8477 90.968C68.0877 90.728 68.2077 90.424 68.2077 90.056V83.192H72.9117V90.008C72.9117 91.048 72.6557 91.968 72.1437 92.768C71.6477 93.552 70.9517 94.168 70.0557 94.616C69.1757 95.064 68.1597 95.288 67.0077 95.288ZM82.1168 95.24C81.4128 95.24 80.7488 95.104 80.1248 94.832C79.5008 94.56 78.9728 94.2 78.5408 93.752C78.1088 93.288 77.8288 92.784 77.7008 92.24V85.712C77.8288 85.168 78.1088 84.688 78.5408 84.272C78.9728 83.856 79.5008 83.536 80.1248 83.312C80.7488 83.072 81.4128 82.952 82.1168 82.952C83.2848 82.952 84.3008 83.216 85.1648 83.744C86.0448 84.256 86.7248 84.976 87.2048 85.904C87.7008 86.832 87.9488 87.896 87.9488 89.096C87.9488 90.296 87.7008 91.36 87.2048 92.288C86.7248 93.2 86.0448 93.92 85.1648 94.448C84.3008 94.976 83.2848 95.24 82.1168 95.24ZM74.8448 95V77.432H79.5488V86.096L78.7808 88.952L79.4288 91.832V95H74.8448ZM81.2528 91.112C81.6368 91.112 81.9728 91.024 82.2608 90.848C82.5648 90.672 82.7968 90.432 82.9568 90.128C83.1328 89.824 83.2208 89.48 83.2208 89.096C83.2208 88.712 83.1328 88.368 82.9568 88.064C82.7968 87.76 82.5648 87.52 82.2608 87.344C81.9568 87.168 81.6128 87.08 81.2288 87.08C80.8448 87.08 80.5008 87.168 80.1968 87.344C79.9088 87.52 79.6848 87.76 79.5248 88.064C79.3648 88.352 79.2848 88.696 79.2848 89.096C79.2848 89.496 79.3648 89.848 79.5248 90.152C79.7008 90.456 79.9328 90.696 80.2208 90.872C80.5248 91.032 80.8688 91.112 81.2528 91.112ZM95.1092 95.288C93.9572 95.288 92.9332 95.064 92.0372 94.616C91.1572 94.168 90.4612 93.544 89.9492 92.744C89.4372 91.944 89.1812 91.032 89.1812 90.008V83.192H93.8852V90.056C93.8852 90.296 93.9332 90.512 94.0292 90.704C94.1412 90.896 94.2852 91.048 94.4612 91.16C94.6532 91.256 94.8692 91.304 95.1092 91.304C95.4452 91.304 95.7252 91.192 95.9492 90.968C96.1892 90.728 96.3092 90.424 96.3092 90.056V83.192H101.013V90.008C101.013 91.048 100.757 91.968 100.245 92.768C99.7492 93.552 99.0532 94.168 98.1572 94.616C97.2772 95.064 96.2612 95.288 95.1092 95.288Z" fill="#F1B74C"/>
<path d="M140 70C140 70 108.66 70 70 70C31.3401 70 0 70 0 70C0 31.3401 31.3401 0 70 0C108.66 0 140 31.3401 140 70Z" fill="#F1B74C"/>
<rect x="88.9037" y="35" width="22.9037" height="22.9037" rx="11.4518" fill="black"/>
<rect x="93.7255" y="41.63" width="5.42455" height="5.42455" rx="2.71228" fill="white"/>
<rect x="28" y="35" width="22.9037" height="22.9037" rx="11.4518" fill="black"/>
<rect x="32.8219" y="41.63" width="5.42455" height="5.42455" rx="2.71228" fill="white"/>
</svg>
