<svg viewBox="0 0 141 101" fill="none" xmlns="http://www.w3.org/2000/svg">
<path d="M1.51952 95V77.912H4.99952L11.3595 87.224H9.84752L16.1835 77.912H19.6635V95H14.9115V85.784L15.6075 85.976L12.1275 90.968H9.05552L5.59952 85.976L6.27152 85.784V95H1.51952ZM28.1601 95.288C26.8641 95.288 25.7041 95.024 24.6801 94.496C23.6721 93.952 22.8721 93.208 22.2801 92.264C21.7041 91.32 21.4161 90.256 21.4161 89.072C21.4161 87.888 21.7041 86.832 22.2801 85.904C22.8561 84.976 23.6481 84.248 24.6561 83.72C25.6801 83.176 26.8401 82.904 28.1361 82.904C29.4321 82.904 30.5841 83.176 31.5921 83.72C32.6001 84.248 33.3921 84.976 33.9681 85.904C34.5601 86.832 34.8561 87.888 34.8561 89.072C34.8561 90.256 34.5681 91.32 33.9921 92.264C33.4161 93.208 32.6241 93.952 31.6161 94.496C30.6081 95.024 29.4561 95.288 28.1601 95.288ZM28.1361 91.16C28.5361 91.16 28.8801 91.08 29.1681 90.92C29.4721 90.744 29.7041 90.504 29.8641 90.2C30.0241 89.88 30.1041 89.512 30.1041 89.096C30.1041 88.68 30.0161 88.32 29.8401 88.016C29.6801 87.696 29.4561 87.456 29.1681 87.296C28.8801 87.12 28.5361 87.032 28.1361 87.032C27.7521 87.032 27.4081 87.12 27.1041 87.296C26.8161 87.472 26.5841 87.72 26.4081 88.04C26.2481 88.344 26.1681 88.704 26.1681 89.12C26.1681 89.52 26.2481 89.88 26.4081 90.2C26.5841 90.504 26.8161 90.744 27.1041 90.92C27.4081 91.08 27.7521 91.16 28.1361 91.16ZM42.2695 95.288C40.9735 95.288 39.8135 95.024 38.7895 94.496C37.7815 93.952 36.9815 93.208 36.3895 92.264C35.8135 91.32 35.5255 90.256 35.5255 89.072C35.5255 87.888 35.8135 86.832 36.3895 85.904C36.9655 84.976 37.7575 84.248 38.7655 83.72C39.7895 83.176 40.9495 82.904 42.2455 82.904C43.5415 82.904 44.6935 83.176 45.7015 83.72C46.7095 84.248 47.5015 84.976 48.0775 85.904C48.6695 86.832 48.9655 87.888 48.9655 89.072C48.9655 90.256 48.6775 91.32 48.1015 92.264C47.5255 93.208 46.7335 93.952 45.7255 94.496C44.7175 95.024 43.5655 95.288 42.2695 95.288ZM42.2455 91.16C42.6455 91.16 42.9895 91.08 43.2775 90.92C43.5815 90.744 43.8135 90.504 43.9735 90.2C44.1335 89.88 44.2135 89.512 44.2135 89.096C44.2135 88.68 44.1255 88.32 43.9495 88.016C43.7895 87.696 43.5655 87.456 43.2775 87.296C42.9895 87.12 42.6455 87.032 42.2455 87.032C41.8615 87.032 41.5175 87.12 41.2135 87.296C40.9255 87.472 40.6935 87.72 40.5175 88.04C40.3575 88.344 40.2775 88.704 40.2775 89.12C40.2775 89.52 40.3575 89.88 40.5175 90.2C40.6935 90.504 40.9255 90.744 41.2135 90.92C41.5175 91.08 41.8615 91.16 42.2455 91.16ZM55.5388 95.24C54.3708 95.24 53.3468 94.976 52.4668 94.448C51.6028 93.92 50.9228 93.2 50.4268 92.288C49.9468 91.36 49.7068 90.296 49.7068 89.096C49.7068 87.896 49.9468 86.832 50.4268 85.904C50.9228 84.976 51.6028 84.256 52.4668 83.744C53.3468 83.216 54.3708 82.952 55.5388 82.952C56.2428 82.952 56.9068 83.072 57.5308 83.312C58.1548 83.536 58.6828 83.856 59.1148 84.272C59.5628 84.688 59.8428 85.168 59.9548 85.712V92.24C59.8428 92.784 59.5628 93.288 59.1148 93.752C58.6828 94.2 58.1548 94.56 57.5308 94.832C56.9068 95.104 56.2428 95.24 55.5388 95.24ZM56.4028 91.112C56.8028 91.112 57.1468 91.032 57.4348 90.872C57.7228 90.696 57.9468 90.456 58.1068 90.152C58.2828 89.848 58.3708 89.496 58.3708 89.096C58.3708 88.696 58.2908 88.352 58.1308 88.064C57.9708 87.76 57.7388 87.52 57.4348 87.344C57.1468 87.168 56.8108 87.08 56.4268 87.08C56.0428 87.08 55.6988 87.168 55.3948 87.344C55.1068 87.52 54.8748 87.76 54.6988 88.064C54.5228 88.368 54.4348 88.712 54.4348 89.096C54.4348 89.48 54.5148 89.824 54.6748 90.128C54.8508 90.432 55.0908 90.672 55.3948 90.848C55.6988 91.024 56.0348 91.112 56.4028 91.112ZM62.8108 95H58.2268V91.832L58.8748 88.952L58.1068 86.096V77.432H62.8108V95ZM73.5638 95V91.544H76.7078C77.3158 91.544 77.8038 91.384 78.1718 91.064C78.5398 90.728 78.7238 90.272 78.7238 89.696C78.7238 89.312 78.6358 88.984 78.4598 88.712C78.2998 88.424 78.0678 88.208 77.7638 88.064C77.4758 87.92 77.1238 87.848 76.7078 87.848H73.5638V84.536H76.4918C77.0038 84.536 77.4278 84.408 77.7638 84.152C78.0998 83.896 78.2678 83.496 78.2678 82.952C78.2678 82.408 78.0998 82.008 77.7638 81.752C77.4278 81.496 77.0038 81.368 76.4918 81.368H73.5638V77.912H77.8358C78.8758 77.912 79.7798 78.112 80.5478 78.512C81.3318 78.896 81.9398 79.432 82.3718 80.12C82.8038 80.792 83.0198 81.568 83.0198 82.448C83.0198 83.664 82.5878 84.656 81.7238 85.424C80.8598 86.192 79.5958 86.632 77.9318 86.744L77.8838 85.088C79.6918 85.2 81.0758 85.696 82.0358 86.576C82.9958 87.456 83.4758 88.584 83.4758 89.96C83.4758 90.952 83.2278 91.832 82.7318 92.6C82.2358 93.352 81.5398 93.944 80.6438 94.376C79.7638 94.792 78.7318 95 77.5478 95H73.5638ZM69.6758 95V77.912H74.3798V95H69.6758ZM90.8241 95.288C89.6721 95.288 88.6481 95.064 87.7521 94.616C86.8721 94.168 86.1761 93.544 85.6641 92.744C85.1521 91.944 84.8961 91.032 84.8961 90.008V83.192H89.6001V90.056C89.6001 90.296 89.6481 90.512 89.7441 90.704C89.8561 90.896 90.0001 91.048 90.1761 91.16C90.3681 91.256 90.5841 91.304 90.8241 91.304C91.1601 91.304 91.4401 91.192 91.6641 90.968C91.9041 90.728 92.0241 90.424 92.0241 90.056V83.192H96.7281V90.008C96.7281 91.048 96.4721 91.968 95.9601 92.768C95.4641 93.552 94.7681 94.168 93.8721 94.616C92.9921 95.064 91.9761 95.288 90.8241 95.288ZM103.773 95.24C102.605 95.24 101.581 94.976 100.701 94.448C99.8372 93.92 99.1572 93.2 98.6612 92.288C98.1812 91.36 97.9412 90.296 97.9412 89.096C97.9412 87.896 98.1812 86.832 98.6612 85.904C99.1572 84.976 99.8372 84.256 100.701 83.744C101.581 83.216 102.605 82.952 103.773 82.952C104.477 82.952 105.141 83.072 105.765 83.312C106.389 83.536 106.917 83.856 107.349 84.272C107.797 84.688 108.077 85.168 108.189 85.712V92.24C108.077 92.784 107.797 93.288 107.349 93.752C106.917 94.2 106.389 94.56 105.765 94.832C105.141 95.104 104.477 95.24 103.773 95.24ZM104.637 91.112C105.037 91.112 105.381 91.032 105.669 90.872C105.957 90.696 106.181 90.456 106.341 90.152C106.517 89.848 106.605 89.496 106.605 89.096C106.605 88.696 106.525 88.352 106.365 88.064C106.205 87.76 105.973 87.52 105.669 87.344C105.381 87.168 105.045 87.08 104.661 87.08C104.277 87.08 103.933 87.168 103.629 87.344C103.341 87.52 103.109 87.76 102.933 88.064C102.757 88.368 102.669 88.712 102.669 89.096C102.669 89.48 102.749 89.824 102.909 90.128C103.085 90.432 103.325 90.672 103.629 90.848C103.933 91.024 104.269 91.112 104.637 91.112ZM111.045 95H106.461V91.832L107.109 88.952L106.341 86.096V77.432H111.045V95ZM118.422 95.24C117.254 95.24 116.23 94.976 115.35 94.448C114.486 93.92 113.806 93.2 113.31 92.288C112.83 91.36 112.59 90.296 112.59 89.096C112.59 87.896 112.83 86.832 113.31 85.904C113.806 84.976 114.486 84.256 115.35 83.744C116.23 83.216 117.254 82.952 118.422 82.952C119.126 82.952 119.79 83.072 120.414 83.312C121.038 83.536 121.566 83.856 121.998 84.272C122.446 84.688 122.726 85.168 122.838 85.712V92.24C122.726 92.784 122.446 93.288 121.998 93.752C121.566 94.2 121.038 94.56 120.414 94.832C119.79 95.104 119.126 95.24 118.422 95.24ZM119.286 91.112C119.686 91.112 120.03 91.032 120.318 90.872C120.606 90.696 120.83 90.456 120.99 90.152C121.166 89.848 121.254 89.496 121.254 89.096C121.254 88.696 121.174 88.352 121.014 88.064C120.854 87.76 120.622 87.52 120.318 87.344C120.03 87.168 119.694 87.08 119.31 87.08C118.926 87.08 118.582 87.168 118.278 87.344C117.99 87.52 117.758 87.76 117.582 88.064C117.406 88.368 117.318 88.712 117.318 89.096C117.318 89.48 117.398 89.824 117.558 90.128C117.734 90.432 117.974 90.672 118.278 90.848C118.582 91.024 118.918 91.112 119.286 91.112ZM125.694 95H121.11V91.832L121.758 88.952L120.99 86.096V77.432H125.694V95ZM131.414 95L126.758 83.192H131.75L134.486 93.248H132.422L135.11 83.192H140.078L135.446 95H131.414ZM128.846 100.04L132.278 92.288L135.446 95L133.454 100.04H128.846Z" fill="#F1B74C"/>
<path d="M140 70C140 70 108.66 70 70 70C31.3401 70 0 70 0 70C0 31.3401 31.3401 0 70 0C108.66 0 140 31.3401 140 70Z" fill="#F1B74C"/>
<rect x="88.9037" y="35" width="22.9037" height="22.9037" rx="11.4518" fill="black"/>
<rect x="93.7255" y="41.63" width="5.42455" height="5.42455" rx="2.71228" fill="white"/>
<rect x="28" y="35" width="22.9037" height="22.9037" rx="11.4518" fill="black"/>
<rect x="32.8219" y="41.63" width="5.42455" height="5.42455" rx="2.71228" fill="white"/>
</svg>
